<svg width="14" height="15" viewBox="0 0 14 15" fill="none" xmlns="http://www.w3.org/2000/svg">
<path fill-rule="evenodd" clip-rule="evenodd" d="M6.23548 0.396176C6.38412 0.395944 6.54403 0.396015 6.71659 0.396093L7.001 0.396176C9.27942 0.396176 9.54947 0.404354 10.4492 0.445244C11.2812 0.483288 11.7328 0.622312 12.0336 0.739113C12.4318 0.893781 12.7157 1.07867 13.0142 1.37734C13.3129 1.67601 13.4978 1.96046 13.6528 2.35869C13.7696 2.65913 13.9088 3.11069 13.9467 3.9427C13.9876 4.84227 13.9964 5.11249 13.9964 7.38985C13.9964 9.66721 13.9876 9.93743 13.9467 10.837C13.9086 11.669 13.7696 12.1206 13.6528 12.421C13.4981 12.8192 13.3129 13.1028 13.0142 13.4013C12.7155 13.7 12.432 13.8848 12.0336 14.0395C11.7331 14.1569 11.2812 14.2955 10.4492 14.3336C9.54965 14.3745 9.27942 14.3833 7.001 14.3833C4.7224 14.3833 4.45235 14.3745 3.55279 14.3336C2.72078 14.2952 2.26922 14.1561 1.96824 14.0393C1.57001 13.8847 1.28556 13.6998 0.986892 13.4011C0.688223 13.1024 0.503332 12.8187 0.348308 12.4203C0.231507 12.1199 0.0923053 11.6683 0.0544383 10.8363C0.013549 9.93672 0.00537109 9.66649 0.00537109 7.38772C0.00537109 5.10894 0.013549 4.84013 0.0544383 3.94057C0.0924831 3.10856 0.231507 2.657 0.348308 2.3562C0.502976 1.95797 0.688223 1.67352 0.986892 1.37485C1.28556 1.07618 1.57001 0.891293 1.96824 0.736269C2.26904 0.618934 2.72078 0.480266 3.55279 0.442043C4.33999 0.406488 4.64506 0.395821 6.23548 0.394043V0.396176ZM11.5559 1.81302C10.9906 1.81302 10.5319 2.27116 10.5319 2.83667C10.5319 3.40201 10.9906 3.86068 11.5559 3.86068C12.1212 3.86068 12.5799 3.40201 12.5799 2.83667C12.5799 2.27133 12.1212 1.81266 11.5559 1.81266V1.81302ZM2.6188 7.39089C2.6188 4.97084 4.58086 3.00872 7.0009 3.00863C9.42101 3.00863 11.3826 4.97078 11.3826 7.39089C11.3826 9.81101 9.42119 11.7723 7.00107 11.7723C4.58096 11.7723 2.6188 9.81101 2.6188 7.39089Z" fill="#646464"/>
</svg>
