<svg width="15" height="11" viewBox="0 0 15 11" fill="none" xmlns="http://www.w3.org/2000/svg">
<path d="M5.68747 5.5C5.68747 5.96413 5.87184 6.40925 6.20003 6.73744C6.52822 7.06563 6.97334 7.25 7.43747 7.25C7.9016 7.25 8.34672 7.06563 8.67491 6.73744C9.00309 6.40925 9.18747 5.96413 9.18747 5.5C9.18747 5.03587 9.00309 4.59075 8.67491 4.26256C8.34672 3.93437 7.9016 3.75 7.43747 3.75C6.97334 3.75 6.52822 3.93437 6.20003 4.26256C5.87184 4.59075 5.68747 5.03587 5.68747 5.5ZM14.2218 5.09688C12.7406 1.97656 10.5015 0.40625 7.49997 0.40625C4.49684 0.40625 2.25934 1.97656 0.778093 5.09844C0.71868 5.22425 0.687866 5.36165 0.687866 5.50078C0.687866 5.63991 0.71868 5.77732 0.778093 5.90312C2.25934 9.02344 4.49841 10.5938 7.49997 10.5938C10.5031 10.5938 12.7406 9.02344 14.2218 5.90156C14.3422 5.64844 14.3422 5.35469 14.2218 5.09688ZM7.43747 8.25C5.91872 8.25 4.68747 7.01875 4.68747 5.5C4.68747 3.98125 5.91872 2.75 7.43747 2.75C8.95622 2.75 10.1875 3.98125 10.1875 5.5C10.1875 7.01875 8.95622 8.25 7.43747 8.25Z" fill="white"/>
</svg>
