<svg width="38" height="56" viewBox="0 0 38 56" fill="none" xmlns="http://www.w3.org/2000/svg">
<path fill-rule="evenodd" clip-rule="evenodd" d="M0.734375 19.8584C0.734375 34.067 19.367 55.0416 19.367 55.0416C19.367 55.0416 37.9996 34.067 37.9996 19.8584C37.9996 9.38466 29.6682 0.913635 19.367 0.913635C9.06582 0.913635 0.734375 9.38466 0.734375 19.8584ZM14.6616 24.6427C13.4136 23.3738 12.7125 21.6529 12.7125 19.8584C12.7125 18.064 13.4136 16.343 14.6616 15.0741C15.9095 13.8053 17.6021 13.0924 19.367 13.0924C21.1319 13.0924 22.8245 13.8053 24.0725 15.0741C25.3204 16.343 26.0215 18.064 26.0215 19.8584C26.0215 21.6529 25.3204 23.3738 24.0725 24.6427C22.8245 25.9116 21.1319 26.6244 19.367 26.6244C17.6021 26.6244 15.9095 25.9116 14.6616 24.6427Z" fill="url(#paint0_linear_4_88)"/>
<defs>
<linearGradient id="paint0_linear_4_88" x1="0.416525" y1="57.2386" x2="37.6875" y2="57.6763" gradientUnits="userSpaceOnUse">
<stop stop-color="#001C80"/>
<stop offset="0.302083" stop-color="#153ABF"/>
<stop offset="1" stop-color="#2B59FF"/>
</linearGradient>
</defs>
</svg>
